<svg preserveAspectRatio="none" overflow="visible" style="display: block;" width="94" height="30" viewBox="0 0 94 30" fill="none" xmlns="http://www.w3.org/2000/svg">
<g id="Canva_Logo_0 1" clip-path="url(#clip0_0_4)">
<path id="Vector" d="M93.3407 20.4844C93.1994 20.4844 93.0581 20.5781 92.9639 20.8125C92.022 23.5313 90.7034 25.1719 89.6202 25.1719C89.008 25.1719 88.7725 24.4688 88.7725 23.4375C88.7725 20.7656 90.3738 15.0938 91.1744 12.4688C91.2685 12.1406 91.3156 11.8594 91.3156 11.625C91.3156 10.875 90.8918 10.5 89.8557 10.5C88.7725 10.5 87.5481 10.9219 86.4178 12.9375C86.0411 11.1563 84.8166 10.4063 83.1212 10.4063C81.1904 10.4063 79.3066 11.6719 77.7525 13.6875C76.1984 15.7031 74.3617 16.3594 72.996 16.0313C73.985 13.6406 74.3617 11.8125 74.3617 10.5C74.3617 8.39062 73.3257 7.125 71.6303 7.125C69.0872 7.125 67.6273 9.5625 67.6273 12.0937C67.6273 14.0625 68.522 16.0781 70.5 17.0625C68.8517 20.7656 66.4499 24.1406 65.508 24.1406C64.3307 24.1406 63.9539 18.375 64.0481 14.25C64.0952 11.9062 64.2836 11.7656 64.2836 11.0625C64.2836 10.6406 64.001 10.3594 62.9178 10.3594C60.4218 10.3594 59.6212 12.4687 59.5271 14.9062C59.48 15.8437 59.3387 16.7344 59.1032 17.625C58.0671 21.3281 55.9008 24.1875 54.488 24.1875C53.8287 24.1875 53.6403 23.5313 53.6403 22.6875C53.6403 20.0156 55.1473 16.6406 55.1473 13.7812C55.1473 11.6719 54.2054 10.3594 52.4629 10.3594C50.3908 10.3594 47.7064 12.7969 45.1162 17.3438C45.9639 13.875 46.2936 10.5 43.7976 10.5C43.2325 10.5 42.7144 10.6406 42.2435 10.9219C41.9138 11.0625 41.7255 11.3906 41.7255 11.7656C41.9609 15.4688 38.7114 24.9844 35.6503 24.9844C35.0852 24.9844 34.8026 24.375 34.8026 23.3906C34.8026 20.7188 36.4038 15.0469 37.2044 12.4219C37.2986 12.0938 37.3457 11.8125 37.3457 11.5313C37.3457 10.8281 36.9218 10.4531 35.8858 10.4531C34.8026 10.4531 33.5782 10.875 32.4479 12.8906C32.0241 11.1094 30.8467 10.3594 29.1513 10.3594C26.3727 10.3594 23.3116 13.2656 21.9459 17.0625C20.1092 22.125 16.483 27.0469 11.5381 27.0469C7.06413 27.0469 4.70942 23.3437 4.70942 17.4844C4.70942 9 10.9729 2.10938 15.5882 2.10938C17.8016 2.10938 18.8377 3.51563 18.8377 5.67188C18.8377 8.29688 17.3778 9.46875 17.3778 10.5C17.3778 10.7812 17.6132 11.1094 18.1313 11.1094C20.1563 11.1094 22.511 8.76563 22.511 5.53125C22.511 2.29688 19.9679 0 15.3527 0C7.67635 0 0 7.64062 0 17.4844C0 25.3125 3.86172 30 10.5491 30C15.1172 30 19.1202 26.4844 21.2395 22.3594C21.4749 25.7813 23.0291 27.5625 25.4309 27.5625C27.5501 27.5625 29.2455 26.2969 30.5641 24.0938C31.0822 26.3906 32.4008 27.5156 34.1433 27.5156C36.1212 27.5156 37.8166 26.25 39.3707 23.9531C39.3707 25.7812 39.7475 27.5156 41.3487 27.5156C42.1022 27.5156 42.997 27.3281 43.1383 26.6719C44.8337 19.7813 48.978 14.1094 50.2495 14.1094C50.6263 14.1094 50.7204 14.4844 50.7204 14.9062C50.7204 16.7812 49.4018 20.625 49.4018 23.0625C49.4018 25.7344 50.5321 27.4687 52.8868 27.4687C55.477 27.4687 58.1142 24.3281 59.8567 19.6875C60.4218 24 61.5992 27.4687 63.4359 27.4687C65.6964 27.4687 69.7936 22.6875 72.2425 17.625C73.1844 17.7656 74.6443 17.7188 76.0571 16.7344C75.4449 18.2344 75.1152 19.875 75.1152 21.4687C75.1152 26.1562 77.3758 27.4687 79.3066 27.4687C81.4259 27.4687 83.1212 26.2031 84.4399 24C84.8637 25.9688 85.994 27.4219 88.019 27.4219C91.1743 27.4219 93.9529 24.1875 93.9529 21.5156C94 20.9531 93.6703 20.4844 93.3407 20.4844ZM27.4088 24.9375C26.1373 24.9375 25.6192 23.6719 25.6192 21.75C25.6192 18.4219 27.9269 12.8437 30.3287 12.8437C31.3647 12.8437 31.7886 14.0625 31.7886 15.6094C31.7886 18.9844 29.6222 24.9375 27.4088 24.9375ZM71.3477 15C70.5942 14.1094 70.3116 12.8438 70.3116 11.7656C70.3116 10.4063 70.8297 9.28125 71.3948 9.28125C71.9599 9.28125 72.1954 9.84375 72.1954 10.6875C72.1483 12 71.6774 14.0156 71.3477 15ZM81.2846 24.9375C80.013 24.9375 79.495 23.4375 79.495 21.75C79.495 18.5156 81.8026 12.8437 84.2044 12.8437C85.2405 12.8437 85.6172 14.0625 85.6172 15.6094C85.6643 18.9844 83.5451 24.9375 81.2846 24.9375Z" fill="#3D3D3D"/>
</g>
<defs>
<clipPath id="clip0_0_4">
<rect width="94" height="30" fill="white"/>
</clipPath>
</defs>
</svg>
